<svg width="781" height="363" viewBox="0 0 781 363" fill="none" xmlns="http://www.w3.org/2000/svg">
<path d="M273.855 229.369C269.651 229.647 265.688 229.135 261.967 227.831C258.3 226.524 255.019 224.604 252.125 222.07C249.281 219.479 246.99 216.37 245.253 212.744C243.516 209.117 242.5 205.069 242.203 200.599C241.911 196.182 242.359 192.063 243.549 188.243C244.789 184.365 246.649 180.982 249.13 178.091C251.608 175.148 254.58 172.813 258.047 171.086C261.51 169.307 265.37 168.276 269.627 167.994C273.832 167.715 277.631 168.185 281.026 169.403C284.473 170.618 287.419 172.32 289.863 174.51C292.303 176.647 294.118 179.039 295.309 181.686L287.197 186.312C285.758 183.147 283.563 180.674 280.612 178.891C277.658 177.056 274.185 176.271 270.193 176.535C266.255 176.796 262.831 177.958 259.922 180.022C257.012 182.086 254.815 184.824 253.33 188.236C251.899 191.645 251.33 195.557 251.623 199.974C251.915 204.391 253.024 208.22 254.949 211.46C256.924 214.643 259.49 217.065 262.647 218.727C265.8 220.335 269.346 221.009 273.284 220.748C276.583 220.529 279.546 219.664 282.172 218.154C284.847 216.587 286.929 214.525 288.416 211.968C289.9 209.357 290.533 206.402 290.314 203.103L290.044 199.032L294.529 202.583L272.018 204.075L271.489 196.092L299.109 194.262L299.479 199.85C299.768 204.213 299.283 208.174 298.022 211.732C296.757 215.237 294.927 218.271 292.532 220.835C290.136 223.399 287.329 225.402 284.111 226.845C280.892 228.288 277.474 229.129 273.855 229.369ZM322.985 226.113C320.058 226.307 317.444 225.972 315.142 225.109C312.889 224.19 311.091 222.866 309.747 221.137C308.4 219.356 307.643 217.215 307.478 214.713C307.322 212.372 307.689 210.236 308.576 208.307C309.517 206.374 311.036 204.696 313.134 203.274C315.231 201.853 317.912 200.766 321.176 200.015L336.019 196.546L336.49 203.651L323.392 206.844C321.026 207.428 319.321 208.316 318.277 209.508C317.23 210.646 316.763 212.067 316.876 213.77C316.985 215.42 317.687 216.736 318.982 217.719C320.326 218.646 321.982 219.044 323.951 218.913C326.399 218.751 328.493 218.078 330.232 216.894C332.024 215.706 333.367 214.2 334.262 212.377C335.153 210.501 335.526 208.472 335.382 206.29L334.646 195.194C334.505 193.065 333.593 191.389 331.908 190.164C330.273 188.883 328.152 188.329 325.544 188.501C323.149 188.66 321.089 189.438 319.365 190.835C317.69 192.175 316.492 193.858 315.771 195.884L308.019 192.629C308.676 190.448 309.856 188.499 311.56 186.782C313.26 185.013 315.277 183.596 317.612 182.533C320 181.466 322.551 180.843 325.265 180.663C328.671 180.437 331.72 180.876 334.412 181.981C337.158 183.082 339.325 184.729 340.913 186.922C342.551 189.058 343.469 191.616 343.667 194.596L345.592 223.653L336.971 224.224L336.453 216.401L338.305 216.519C337.41 218.342 336.206 219.945 334.695 221.328C333.236 222.708 331.518 223.81 329.542 224.636C327.619 225.458 325.433 225.951 322.985 226.113ZM356.139 222.954L353.277 179.768L361.898 179.197L362.517 188.537L361.304 187.174C362.015 184.187 363.519 181.869 365.815 180.22C368.111 178.572 370.802 177.645 373.888 177.441C377.347 177.211 380.469 177.94 383.253 179.626C386.087 181.256 388.057 183.557 389.163 186.53L386.624 186.939C387.672 183.395 389.444 180.686 391.938 178.81C394.486 176.931 397.463 175.878 400.869 175.653C403.849 175.455 406.583 175.969 409.069 177.194C411.609 178.415 413.678 180.202 415.277 182.555C416.876 184.908 417.78 187.654 417.988 190.794L419.839 218.732L410.819 219.33L409.132 193.866C408.987 191.684 408.466 189.875 407.569 188.437C406.722 186.944 405.58 185.843 404.144 185.137C402.757 184.373 401.159 184.052 399.349 184.172C397.54 184.292 395.972 184.823 394.644 185.766C393.314 186.656 392.3 187.899 391.604 189.495C390.908 191.092 390.631 192.954 390.772 195.083L392.459 220.547L383.519 221.139L381.832 195.675C381.687 193.493 381.166 191.684 380.269 190.247C379.422 188.753 378.28 187.652 376.843 186.946C375.457 186.183 373.832 185.863 371.969 185.986C370.16 186.106 368.592 186.638 367.264 187.581C365.934 188.471 364.92 189.714 364.224 191.31C363.582 192.903 363.331 194.763 363.472 196.892L365.159 222.356L356.139 222.954ZM429.494 218.093L426.632 174.907L435.652 174.31L438.514 217.495L429.494 218.093ZM426.24 169L425.553 158.623L434.573 158.025L435.261 168.403L426.24 169ZM449.06 216.796L446.198 173.611L454.819 173.039L455.38 181.501L454.268 180.452C455.153 177.668 456.72 175.506 458.97 173.967C461.216 172.375 463.883 171.477 466.969 171.272C470.162 171.061 473.029 171.566 475.568 172.787C478.108 174.008 480.151 175.797 481.696 178.153C483.242 180.51 484.121 183.284 484.333 186.477L486.179 214.336L477.238 214.929L475.551 189.465C475.406 187.283 474.886 185.473 473.989 184.036C473.088 182.546 471.866 181.451 470.323 180.751C468.83 179.995 467.152 179.678 465.29 179.802C463.427 179.925 461.779 180.462 460.345 181.412C458.961 182.306 457.921 183.551 457.225 185.147C456.529 186.743 456.252 188.605 456.393 190.734L458.08 216.198L449.06 216.796ZM517.831 229.877C514.691 230.085 511.757 229.772 509.029 228.937C506.301 228.102 503.92 226.844 501.884 225.161C499.852 223.532 498.277 221.552 497.161 219.221L505.235 215.238C506.114 217.211 507.582 218.797 509.639 219.997C511.75 221.194 514.269 221.695 517.195 221.501C519.484 221.349 521.503 220.761 523.252 219.737C525.005 218.765 526.357 217.393 527.309 215.619C528.264 213.899 528.664 211.868 528.508 209.527L527.863 199.788L529.581 201.518C528.275 204.384 526.338 206.624 523.773 208.237C521.26 209.847 518.354 210.761 515.055 210.98C511.064 211.244 507.41 210.551 504.094 208.9C500.777 207.249 498.08 204.862 496.002 201.739C493.978 198.613 492.832 195.027 492.564 190.983C492.292 186.885 492.955 183.18 494.553 179.867C496.204 176.551 498.538 173.857 501.554 171.786C504.57 169.716 508.101 168.546 512.145 168.278C515.445 168.06 518.419 168.584 521.069 169.852C523.768 171.063 526.031 172.944 527.857 175.495L526.807 177.81L526.178 168.311L534.719 167.745L537.449 208.934C537.696 212.659 537.011 216.045 535.396 219.092C533.837 222.189 531.545 224.693 528.518 226.604C525.491 228.515 521.928 229.606 517.831 229.877ZM515.537 202.529C517.932 202.37 520.024 201.671 521.812 200.43C523.597 199.135 524.958 197.495 525.896 195.509C526.883 193.466 527.295 191.22 527.133 188.772C526.971 186.324 526.266 184.153 525.018 182.258C523.77 180.363 522.177 178.918 520.241 177.924C518.301 176.877 516.16 176.431 513.818 176.586C511.37 176.748 509.227 177.478 507.389 178.776C505.547 180.02 504.133 181.664 503.146 183.707C502.208 185.694 501.822 187.937 501.988 190.439C502.147 192.833 502.824 194.98 504.018 196.878C505.267 198.773 506.887 200.243 508.881 201.287C510.87 202.277 513.089 202.691 515.537 202.529Z" fill="url(#paint0_linear_815_20845)"/>
<path d="M306.269 93V33.4H345.069V41.8H315.709V59.72H341.869V68.12H315.709V93H306.269ZM352.108 93V49.72H361.148V93H352.108ZM352.108 43.8V33.4H361.148V43.8H352.108ZM371.717 93V49.72H380.358V58.2L379.318 57.08C380.384 54.36 382.091 52.3067 384.438 50.92C386.784 49.48 389.504 48.76 392.598 48.76C395.798 48.76 398.624 49.4533 401.078 50.84C403.531 52.2267 405.451 54.1467 406.837 56.6C408.224 59.0533 408.918 61.88 408.918 65.08V93H399.958V67.48C399.958 65.2933 399.558 63.4533 398.758 61.96C397.958 60.4133 396.811 59.24 395.318 58.44C393.878 57.5867 392.224 57.16 390.358 57.16C388.491 57.16 386.811 57.5867 385.318 58.44C383.878 59.24 382.758 60.4133 381.958 61.96C381.158 63.5067 380.758 65.3467 380.758 67.48V93H371.717ZM438.593 93.96C434.433 93.96 430.699 92.9733 427.393 91C424.139 88.9733 421.553 86.2533 419.633 82.84C417.766 79.4267 416.833 75.5867 416.833 71.32C416.833 67.0533 417.793 63.2133 419.713 59.8C421.633 56.3867 424.219 53.6933 427.473 51.72C430.726 49.7467 434.406 48.76 438.513 48.76C441.979 48.76 445.046 49.4533 447.713 50.84C450.379 52.2267 452.486 54.1467 454.033 56.6L452.673 58.68V32.44H461.633V93H453.073V84.2L454.113 85.88C452.619 88.4933 450.486 90.4933 447.713 91.88C444.939 93.2667 441.899 93.96 438.593 93.96ZM439.473 85.56C441.979 85.56 444.219 84.9467 446.193 83.72C448.219 82.4933 449.793 80.8133 450.913 78.68C452.086 76.4933 452.673 74.04 452.673 71.32C452.673 68.6 452.086 66.1733 450.913 64.04C449.793 61.9067 448.219 60.2267 446.193 59C444.219 57.7733 441.979 57.16 439.473 57.16C436.966 57.16 434.699 57.7733 432.673 59C430.646 60.2267 429.073 61.9067 427.953 64.04C426.833 66.1733 426.273 68.6 426.273 71.32C426.273 74.04 426.833 76.4933 427.953 78.68C429.073 80.8133 430.619 82.4933 432.593 83.72C434.619 84.9467 436.913 85.56 439.473 85.56ZM254.98 333V273.4H293.78V281.8H264.42V299.72H290.58V308.12H264.42V333H254.98ZM298.397 333V289.72H307.037V298.44L306.237 297.16C307.197 294.333 308.744 292.307 310.877 291.08C313.011 289.8 315.571 289.16 318.557 289.16H321.197V297.4H317.437C314.451 297.4 312.024 298.333 310.157 300.2C308.344 302.013 307.437 304.627 307.437 308.04V333H298.397ZM327.382 333V289.72H336.422V333H327.382ZM327.382 283.8V273.4H336.422V283.8H327.382ZM367.311 333.96C362.991 333.96 359.151 332.973 355.791 331C352.484 328.973 349.898 326.253 348.031 322.84C346.164 319.373 345.231 315.507 345.231 311.24C345.231 306.867 346.164 303 348.031 299.64C349.951 296.28 352.511 293.64 355.711 291.72C358.911 289.747 362.538 288.76 366.591 288.76C369.844 288.76 372.751 289.32 375.311 290.44C377.871 291.56 380.031 293.107 381.791 295.08C383.551 297 384.884 299.213 385.791 301.72C386.751 304.227 387.231 306.893 387.231 309.72C387.231 310.413 387.204 311.133 387.151 311.88C387.098 312.627 386.991 313.32 386.831 313.96H352.351V306.76H381.711L377.391 310.04C377.924 307.427 377.738 305.107 376.831 303.08C375.978 301 374.644 299.373 372.831 298.2C371.071 296.973 368.991 296.36 366.591 296.36C364.191 296.36 362.058 296.973 360.191 298.2C358.324 299.373 356.884 301.08 355.871 303.32C354.858 305.507 354.458 308.173 354.671 311.32C354.404 314.253 354.804 316.813 355.871 319C356.991 321.187 358.538 322.893 360.511 324.12C362.538 325.347 364.831 325.96 367.391 325.96C370.004 325.96 372.218 325.373 374.031 324.2C375.898 323.027 377.364 321.507 378.431 319.64L385.791 323.24C384.938 325.267 383.604 327.107 381.791 328.76C380.031 330.36 377.898 331.64 375.391 332.6C372.938 333.507 370.244 333.96 367.311 333.96ZM396.053 333V289.72H404.693V298.2L403.653 297.08C404.72 294.36 406.427 292.307 408.773 290.92C411.12 289.48 413.84 288.76 416.933 288.76C420.133 288.76 422.96 289.453 425.413 290.84C427.867 292.227 429.787 294.147 431.173 296.6C432.56 299.053 433.253 301.88 433.253 305.08V333H424.293V307.48C424.293 305.293 423.893 303.453 423.093 301.96C422.293 300.413 421.147 299.24 419.653 298.44C418.213 297.587 416.56 297.16 414.693 297.16C412.827 297.16 411.147 297.587 409.653 298.44C408.213 299.24 407.093 300.413 406.293 301.96C405.493 303.507 405.093 305.347 405.093 307.48V333H396.053ZM462.928 333.96C458.768 333.96 455.035 332.973 451.728 331C448.475 328.973 445.888 326.253 443.968 322.84C442.102 319.427 441.168 315.587 441.168 311.32C441.168 307.053 442.128 303.213 444.048 299.8C445.968 296.387 448.555 293.693 451.808 291.72C455.062 289.747 458.742 288.76 462.848 288.76C466.315 288.76 469.382 289.453 472.048 290.84C474.715 292.227 476.822 294.147 478.368 296.6L477.008 298.68V272.44H485.968V333H477.408V324.2L478.448 325.88C476.955 328.493 474.822 330.493 472.048 331.88C469.275 333.267 466.235 333.96 462.928 333.96ZM463.808 325.56C466.315 325.56 468.555 324.947 470.528 323.72C472.555 322.493 474.128 320.813 475.248 318.68C476.422 316.493 477.008 314.04 477.008 311.32C477.008 308.6 476.422 306.173 475.248 304.04C474.128 301.907 472.555 300.227 470.528 299C468.555 297.773 466.315 297.16 463.808 297.16C461.302 297.16 459.035 297.773 457.008 299C454.982 300.227 453.408 301.907 452.288 304.04C451.168 306.173 450.608 308.6 450.608 311.32C450.608 314.04 451.168 316.493 452.288 318.68C453.408 320.813 454.955 322.493 456.928 323.72C458.955 324.947 461.248 325.56 463.808 325.56ZM512.522 333.96C508.096 333.96 504.202 332.867 500.842 330.68C497.536 328.493 495.216 325.56 493.882 321.88L500.842 318.6C502.016 321.053 503.616 323 505.642 324.44C507.722 325.88 510.016 326.6 512.522 326.6C514.656 326.6 516.389 326.12 517.722 325.16C519.056 324.2 519.722 322.893 519.722 321.24C519.722 320.173 519.429 319.32 518.842 318.68C518.256 317.987 517.509 317.427 516.602 317C515.749 316.573 514.869 316.253 513.962 316.04L507.162 314.12C503.429 313.053 500.629 311.453 498.762 309.32C496.949 307.133 496.042 304.6 496.042 301.72C496.042 299.107 496.709 296.84 498.042 294.92C499.376 292.947 501.216 291.427 503.562 290.36C505.909 289.293 508.549 288.76 511.482 288.76C515.429 288.76 518.949 289.747 522.042 291.72C525.136 293.64 527.322 296.333 528.602 299.8L521.642 303.08C520.789 301 519.429 299.347 517.562 298.12C515.749 296.893 513.696 296.28 511.402 296.28C509.429 296.28 507.856 296.76 506.682 297.72C505.509 298.627 504.922 299.827 504.922 301.32C504.922 302.333 505.189 303.187 505.722 303.88C506.256 304.52 506.949 305.053 507.802 305.48C508.656 305.853 509.536 306.173 510.442 306.44L517.482 308.52C521.056 309.533 523.802 311.133 525.722 313.32C527.642 315.453 528.602 318.013 528.602 321C528.602 323.56 527.909 325.827 526.522 327.8C525.189 329.72 523.322 331.24 520.922 332.36C518.522 333.427 515.722 333.96 512.522 333.96Z" fill="white"/>
<defs>
<linearGradient id="paint0_linear_815_20845" x1="28.2563" y1="178.075" x2="704.401" y2="378.121" gradientUnits="userSpaceOnUse">
<stop stop-color="#FE6AB7"/>
<stop offset="0.465175" stop-color="#9B4AEB"/>
<stop offset="1" stop-color="#3931F9"/>
</linearGradient>
</defs>
</svg>
